<svg xmlns="http://www.w3.org/2000/svg" viewBox="0 0 1600 480">
  <defs>
    <linearGradient id="bg" x1="0" y1="0" x2="1" y2="1">
      <stop offset="0" stop-color="#f0fdfa"/>
      <stop offset="0.52" stop-color="#eff6ff"/>
      <stop offset="1" stop-color="#f8fafc"/>
    </linearGradient>
    <linearGradient id="panel" x1="0" y1="0" x2="1" y2="1">
      <stop offset="0" stop-color="#ffffff" stop-opacity="0.86"/>
      <stop offset="1" stop-color="#ffffff" stop-opacity="0.58"/>
    </linearGradient>
    <filter id="blur" x="-40%" y="-40%" width="180%" height="180%">
      <feGaussianBlur stdDeviation="58"/>
    </filter>
    <filter id="panelShadow" x="-10%" y="-20%" width="120%" height="150%">
      <feDropShadow dx="0" dy="30" stdDeviation="34" flood-color="#0f172a" flood-opacity="0.12"/>
    </filter>
    <filter id="floatShadow" x="-40%" y="-40%" width="180%" height="180%">
      <feDropShadow dx="0" dy="16" stdDeviation="14" flood-color="#0f172a" flood-opacity="0.13"/>
    </filter>
  </defs>
  <rect width="1600" height="480" fill="url(#bg)"/>
  <circle cx="256" cy="92" r="148" fill="#67e8f9" fill-opacity="0.46" filter="url(#blur)"/>
  <circle cx="1278" cy="100" r="170" fill="#93c5fd" fill-opacity="0.42" filter="url(#blur)"/>
  <circle cx="872" cy="408" r="156" fill="#a7f3d0" fill-opacity="0.38" filter="url(#blur)"/>
  <rect x="60" y="50" width="1480" height="380" rx="48" fill="url(#panel)" stroke="#ffffff" stroke-opacity="0.86" filter="url(#panelShadow)"/>
  <g>
    <g>
      <animateTransform attributeName="transform" type="translate" values="0 0; 0 -18; 0 0" dur="5.6s" begin="-1.1s" repeatCount="indefinite"/>
      <g transform="translate(124 118)">
        <g transform="rotate(-6 48 48)">
          <rect width="96" height="96" rx="24" fill="#ffffff" stroke="#e2e8f0" filter="url(#floatShadow)"/>
          <path d="M48 18c-15 0-27 12-27 27 0 20 27 43 27 43s27-23 27-43c0-15-12-27-27-27z" fill="#FF5A5F"/>
          <circle cx="48" cy="45" r="9" fill="#ffffff"/>
          <path d="M30 70c10 10 26 10 36 0" fill="none" stroke="#FF5A5F" stroke-width="6" stroke-linecap="round"/>
        </g>
      </g>
    </g>
    <g>
      <animateTransform attributeName="transform" type="translate" values="0 0; 0 -20; 0 0" dur="4.8s" begin="-2.4s" repeatCount="indefinite"/>
      <g transform="translate(312 168)">
        <g transform="rotate(7 42 42)">
          <rect width="84" height="84" rx="23" fill="#ffffff" stroke="#e2e8f0" filter="url(#floatShadow)"/>
          <rect x="18" y="40" width="46" height="28" rx="7" fill="#34D399"/>
          <rect x="18" y="48" width="46" height="7" fill="#0f766e" fill-opacity="0.3"/>
          <rect x="27" y="61" width="17" height="4" rx="2" fill="#ffffff" fill-opacity="0.82"/>
          <rect x="48" y="61" width="11" height="4" rx="2" fill="#ffffff" fill-opacity="0.56"/>
          <path d="M64 16l3 7 7 3-7 3-3 7-3-7-7-3 7-3z" fill="#34D399"/>
        </g>
      </g>
    </g>
    <g>
      <animateTransform attributeName="transform" type="translate" values="0 0; 0 -22; 0 0" dur="6.7s" begin="-3.2s" repeatCount="indefinite"/>
      <g transform="translate(118 286)">
        <g transform="rotate(4 55 55)">
          <rect width="110" height="110" rx="26" fill="#ffffff" stroke="#e2e8f0" filter="url(#floatShadow)"/>
          <g fill="#16A34A" stroke="#16A34A" stroke-width="8" stroke-linecap="round" stroke-linejoin="round">
            <g>
              <path d="M39 23A36 36 0 0 1 87 45" fill="none"/>
              <path d="M87 45l-14-1 8-12z" stroke="none"/>
            </g>
            <g transform="rotate(120 55 55)">
              <path d="M39 23A36 36 0 0 1 87 45" fill="none"/>
              <path d="M87 45l-14-1 8-12z" stroke="none"/>
            </g>
            <g transform="rotate(240 55 55)">
              <path d="M39 23A36 36 0 0 1 87 45" fill="none"/>
              <path d="M87 45l-14-1 8-12z" stroke="none"/>
            </g>
          </g>
        </g>
      </g>
    </g>
    <g>
      <animateTransform attributeName="transform" type="translate" values="0 0; 0 -19; 0 0" dur="5.1s" begin="-1.8s" repeatCount="indefinite"/>
      <g transform="translate(1402 102)">
        <g transform="rotate(6 50 50)">
          <rect width="100" height="100" rx="25" fill="#ffffff" stroke="#e2e8f0" filter="url(#floatShadow)"/>
          <circle cx="50" cy="50" r="33" fill="#3B82F6"/>
          <circle cx="50" cy="50" r="23" fill="none" stroke="#ffffff" stroke-opacity="0.34" stroke-width="5"/>
          <path d="M59 22l-11 27h18L39 80l10-27H32z" fill="#ffffff"/>
        </g>
      </g>
    </g>
    <g>
      <animateTransform attributeName="transform" type="translate" values="0 0; 0 -21; 0 0" dur="6.2s" begin="-2.9s" repeatCount="indefinite"/>
      <g transform="translate(1258 130)">
        <g transform="rotate(-8 43 43)">
          <rect width="86" height="86" rx="23" fill="#ffffff" stroke="#e2e8f0" filter="url(#floatShadow)"/>
          <rect x="22" y="17" width="42" height="38" rx="8" fill="#f5f3ff" stroke="#8B5CF6" stroke-width="4"/>
          <path d="M30 17h26a8 8 0 0 1 8 8v6H22v-6a8 8 0 0 1 8-8z" fill="#8B5CF6"/>
          <path d="M34 14v9M52 14v9" fill="none" stroke="#8B5CF6" stroke-width="5" stroke-linecap="round"/>
          <g fill="#8B5CF6" fill-opacity="0.58">
            <circle cx="34" cy="40" r="2.5"/>
            <circle cx="43" cy="40" r="2.5"/>
            <circle cx="52" cy="40" r="2.5"/>
            <circle cx="34" cy="49" r="2.5"/>
            <circle cx="43" cy="49" r="2.5"/>
            <circle cx="52" cy="49" r="2.5"/>
          </g>
          <circle cx="67" cy="61" r="9" fill="#8B5CF6"/>
          <path d="M62.5 57l4.5 4.5 4.5-4.5M67 61.5v4.5M63.5 64.5l3.5 3.5 3.5-3.5" fill="none" stroke="#ffffff" stroke-width="2.4" stroke-linecap="round" stroke-linejoin="round"/>
        </g>
      </g>
    </g>
    <g>
      <animateTransform attributeName="transform" type="translate" values="0 0; 0 -17; 0 0" dur="4.4s" begin="-3.7s" repeatCount="indefinite"/>
      <g transform="translate(1390 286)">
        <g transform="rotate(5 55 55)">
          <rect width="110" height="110" rx="26" fill="#ffffff" stroke="#e2e8f0" filter="url(#floatShadow)"/>
          <rect x="24" y="22" width="62" height="48" rx="14" fill="#7dd3fc"/>
          <rect x="26" y="68" width="58" height="12" rx="6" fill="#22c55e"/>
          <rect x="38" y="30" width="10" height="30" fill="#ffffff"/>
          <rect x="64" y="30" width="10" height="30" fill="#ffffff"/>
          <rect x="43" y="35" width="5" height="20" fill="#f9a8d4"/>
          <rect x="64" y="35" width="5" height="20" fill="#f9a8d4"/>
          <rect x="34" y="56" width="44" height="28" fill="#ffffff"/>
          <rect x="46" y="65" width="5" height="5" fill="#111827"/>
          <rect x="62" y="65" width="5" height="5" fill="#111827"/>
          <rect x="54" y="74" width="5" height="5" fill="#fb7185"/>
        </g>
      </g>
    </g>
  </g>
  <text x="800" y="128" text-anchor="middle" font-family="-apple-system, 'Segoe UI', 'Noto Sans KR', sans-serif" font-size="22" font-weight="700" letter-spacing="8" fill="#94a3b8">FRONTEND · AI · CLOUD</text>
  <text x="800" y="247" text-anchor="middle" font-family="-apple-system, 'Segoe UI', 'Noto Sans KR', sans-serif" font-size="110" font-weight="800" fill="#1e293b">Sungik Cho</text>
  <text x="800" y="313" text-anchor="middle" font-family="-apple-system, 'Segoe UI', 'Noto Sans KR', sans-serif" font-size="30" font-weight="500" fill="#64748b">잘하는 사람은 많으니, 저는 꾸준히 끝까지 만들어보려 합니다.</text>
  <g font-family="-apple-system, 'Segoe UI', 'Noto Sans KR', sans-serif" font-size="24" font-weight="650" fill="#334155">
    <g>
      <rect x="318" y="352" width="138" height="58" rx="29" fill="#ffffff" fill-opacity="0.62" stroke="#cbd5e1"/>
      <circle cx="349" cy="381" r="8" fill="#61DAFB"/>
      <text x="371" y="390">React</text>
    </g>
    <g>
      <rect x="474" y="352" width="205" height="58" rx="29" fill="#ffffff" fill-opacity="0.62" stroke="#cbd5e1"/>
      <circle cx="505" cy="381" r="8" fill="#3178C6"/>
      <text x="527" y="390">TypeScript</text>
    </g>
    <g>
      <rect x="697" y="352" width="155" height="58" rx="29" fill="#ffffff" fill-opacity="0.62" stroke="#cbd5e1"/>
      <circle cx="728" cy="381" r="8" fill="#FFD43B"/>
      <text x="750" y="390">Python</text>
    </g>
    <g>
      <rect x="870" y="352" width="190" height="58" rx="29" fill="#ffffff" fill-opacity="0.62" stroke="#cbd5e1"/>
      <circle cx="901" cy="381" r="8" fill="#3ECF8E"/>
      <text x="923" y="390">Supabase</text>
    </g>
    <g>
      <rect x="1078" y="352" width="205" height="58" rx="29" fill="#ffffff" fill-opacity="0.62" stroke="#cbd5e1"/>
      <circle cx="1109" cy="381" r="8" fill="#F38020"/>
      <text x="1131" y="390">Cloudflare</text>
    </g>
  </g>
</svg>
