<svg xmlns="http://www.w3.org/2000/svg" viewBox="0 0 1600 480">
  <defs>
    <linearGradient id="bg" x1="0" y1="0" x2="1" y2="1">
      <stop offset="0" stop-color="#f0fdfa"/>
      <stop offset="0.52" stop-color="#eff6ff"/>
      <stop offset="1" stop-color="#f8fafc"/>
    </linearGradient>
    <linearGradient id="panel" x1="0" y1="0" x2="1" y2="1">
      <stop offset="0" stop-color="#ffffff" stop-opacity="0.86"/>
      <stop offset="1" stop-color="#ffffff" stop-opacity="0.58"/>
    </linearGradient>
    <filter id="blur" x="-40%" y="-40%" width="180%" height="180%">
      <feGaussianBlur stdDeviation="58"/>
    </filter>
    <filter id="panelShadow" x="-10%" y="-20%" width="120%" height="150%">
      <feDropShadow dx="0" dy="30" stdDeviation="34" flood-color="#0f172a" flood-opacity="0.12"/>
    </filter>
  </defs>
  <rect width="1600" height="480" fill="url(#bg)"/>
  <circle cx="256" cy="92" r="148" fill="#67e8f9" fill-opacity="0.46" filter="url(#blur)"/>
  <circle cx="1278" cy="100" r="170" fill="#93c5fd" fill-opacity="0.42" filter="url(#blur)"/>
  <circle cx="872" cy="408" r="156" fill="#a7f3d0" fill-opacity="0.38" filter="url(#blur)"/>
  <rect x="60" y="50" width="1480" height="380" rx="48" fill="url(#panel)" stroke="#ffffff" stroke-opacity="0.86" filter="url(#panelShadow)"/>
  <text x="800" y="128" text-anchor="middle" font-family="-apple-system, 'Segoe UI', 'Noto Sans KR', sans-serif" font-size="22" font-weight="700" letter-spacing="8" fill="#94a3b8">FRONTEND · AI · CLOUD</text>
  <text x="800" y="247" text-anchor="middle" font-family="-apple-system, 'Segoe UI', 'Noto Sans KR', sans-serif" font-size="110" font-weight="800" fill="#1e293b">Sungik Cho</text>
  <text x="800" y="313" text-anchor="middle" font-family="-apple-system, 'Segoe UI', 'Noto Sans KR', sans-serif" font-size="30" font-weight="500" fill="#64748b">잘하는 사람은 많으니, 저는 꾸준히 끝까지 만들어보려 합니다.</text>
  <g font-family="-apple-system, 'Segoe UI', 'Noto Sans KR', sans-serif" font-size="24" font-weight="650" fill="#334155">
    <g>
      <rect x="318" y="352" width="138" height="58" rx="29" fill="#ffffff" fill-opacity="0.62" stroke="#cbd5e1"/>
      <circle cx="349" cy="381" r="8" fill="#61DAFB"/>
      <text x="371" y="390">React</text>
    </g>
    <g>
      <rect x="474" y="352" width="205" height="58" rx="29" fill="#ffffff" fill-opacity="0.62" stroke="#cbd5e1"/>
      <circle cx="505" cy="381" r="8" fill="#3178C6"/>
      <text x="527" y="390">TypeScript</text>
    </g>
    <g>
      <rect x="697" y="352" width="155" height="58" rx="29" fill="#ffffff" fill-opacity="0.62" stroke="#cbd5e1"/>
      <circle cx="728" cy="381" r="8" fill="#FFD43B"/>
      <text x="750" y="390">Python</text>
    </g>
    <g>
      <rect x="870" y="352" width="190" height="58" rx="29" fill="#ffffff" fill-opacity="0.62" stroke="#cbd5e1"/>
      <circle cx="901" cy="381" r="8" fill="#3ECF8E"/>
      <text x="923" y="390">Supabase</text>
    </g>
    <g>
      <rect x="1078" y="352" width="205" height="58" rx="29" fill="#ffffff" fill-opacity="0.62" stroke="#cbd5e1"/>
      <circle cx="1109" cy="381" r="8" fill="#F38020"/>
      <text x="1131" y="390">Cloudflare</text>
    </g>
  </g>
</svg>
