<svg xmlns="http://www.w3.org/2000/svg" viewBox="0 0 440 520">
  <defs>
    <filter id="cardShadow" x="-20%" y="-20%" width="140%" height="140%">
      <feDropShadow dx="0" dy="18" stdDeviation="18" flood-color="#0f172a" flood-opacity="0.08"/>
    </filter>
    <filter id="tileShadow" x="-40%" y="-40%" width="180%" height="180%">
      <feDropShadow dx="0" dy="16" stdDeviation="18" flood-color="#0f172a" flood-opacity="0.12"/>
    </filter>
    <filter id="glow" x="-80%" y="-80%" width="260%" height="260%">
      <feGaussianBlur stdDeviation="36"/>
    </filter>
  </defs>
  <rect width="440" height="520" rx="28" fill="#f8fafc"/>
  <rect x="1" y="1" width="438" height="518" rx="28" fill="#ffffff" stroke="#e2e8f0" stroke-width="2" filter="url(#cardShadow)"/>
  <ellipse cx="220" cy="139" rx="90" ry="62" fill="#8B5CF6" fill-opacity="0.2" filter="url(#glow)"/>
  <g>
    <animateTransform attributeName="transform" type="translate" values="0 0; 0 -16; 0 0" dur="5.4s" begin="-2.8s" repeatCount="indefinite"/>
    <rect x="150" y="70" width="140" height="140" rx="36" fill="#ffffff" filter="url(#tileShadow)"/>
    <g>
    <rect x="182" y="102" width="58" height="54" rx="10" fill="#f5f3ff" stroke="#8B5CF6" stroke-width="5"/>
    <path d="M192 102h38a10 10 0 0 1 10 10v9h-58v-9a10 10 0 0 1 10-10z" fill="#8B5CF6"/>
    <path d="M200 103v9M224 103v9" fill="none" stroke="#8B5CF6" stroke-width="5" stroke-linecap="round"/>
    <g fill="#8B5CF6" fill-opacity="0.58">
      <circle cx="199" cy="134" r="3.5"/>
      <circle cx="211" cy="134" r="3.5"/>
      <circle cx="223" cy="134" r="3.5"/>
      <circle cx="199" cy="146" r="3.5"/>
      <circle cx="211" cy="146" r="3.5"/>
      <circle cx="223" cy="146" r="3.5"/>
    </g>
    <circle cx="248" cy="164" r="12" fill="#8B5CF6"/>
    <path d="M242 159l6 6 6-6M248 165v5M244 168l4 4 4-4" fill="none" stroke="#ffffff" stroke-width="3" stroke-linecap="round" stroke-linejoin="round"/>
    </g>
  </g>
  <text x="220" y="286" text-anchor="middle" font-family="-apple-system, 'Segoe UI', 'Noto Sans KR', sans-serif" font-size="40" font-weight="700" fill="#1e293b">PlanMerge</text>
  <text x="220" y="329" text-anchor="middle" font-family="-apple-system, 'Segoe UI', 'Noto Sans KR', sans-serif" font-size="26" fill="#64748b">AI 일정 정리</text>
  <g>
    <rect x="137" y="361" width="166" height="46" rx="23" fill="#8B5CF6" fill-opacity="0.11" stroke="#8B5CF6" stroke-opacity="0.2"/>
    <circle cx="165" cy="384" r="6" fill="#8B5CF6"/>
    <text x="183" y="392" font-family="-apple-system, 'Segoe UI', 'Noto Sans KR', sans-serif" font-size="21" font-weight="600" fill="#8B5CF6">TypeScript</text>
  </g>
  <text x="220" y="461" text-anchor="middle" font-family="-apple-system, 'Segoe UI', 'Noto Sans KR', sans-serif" font-size="22" font-weight="700" fill="#8B5CF6">저장소 보기 →</text>
</svg>
