<svg xmlns="http://www.w3.org/2000/svg" viewBox="0 0 440 520">
  <defs>
    <filter id="cardShadow" x="-20%" y="-20%" width="140%" height="140%">
      <feDropShadow dx="0" dy="18" stdDeviation="18" flood-color="#010409" flood-opacity="0.32"/>
    </filter>
    <filter id="tileShadow" x="-40%" y="-40%" width="180%" height="180%">
      <feDropShadow dx="0" dy="16" stdDeviation="18" flood-color="#010409" flood-opacity="0.26"/>
    </filter>
    <filter id="glow" x="-80%" y="-80%" width="260%" height="260%">
      <feGaussianBlur stdDeviation="36"/>
    </filter>
  </defs>
  <rect width="440" height="520" rx="28" fill="#0d1117"/>
  <rect x="1" y="1" width="438" height="518" rx="28" fill="#161b22" stroke="#30363d" stroke-width="2" filter="url(#cardShadow)"/>
  <ellipse cx="220" cy="139" rx="90" ry="62" fill="#16A34A" fill-opacity="0.12" filter="url(#glow)"/>
  <g>
    <animateTransform attributeName="transform" type="translate" values="0 0; 0 -16; 0 0" dur="5.7s" begin="-3.5s" repeatCount="indefinite"/>
    <rect x="150" y="70" width="140" height="140" rx="36" fill="#21262d" stroke="#30363d" filter="url(#tileShadow)"/>
    <g fill="#22C55E" stroke="#22C55E" stroke-width="9" stroke-linecap="round" stroke-linejoin="round">
    <g>
      <path d="M204 108A36 36 0 0 1 252 130" fill="none"/>
      <path d="M252 130l-14-1 8-12z" stroke="none"/>
    </g>
    <g transform="rotate(120 220 140)">
      <path d="M204 108A36 36 0 0 1 252 130" fill="none"/>
      <path d="M252 130l-14-1 8-12z" stroke="none"/>
    </g>
    <g transform="rotate(240 220 140)">
      <path d="M204 108A36 36 0 0 1 252 130" fill="none"/>
      <path d="M252 130l-14-1 8-12z" stroke="none"/>
    </g>
    </g>
  </g>
  <text x="220" y="286" text-anchor="middle" font-family="-apple-system, 'Segoe UI', 'Noto Sans KR', sans-serif" font-size="40" font-weight="700" fill="#e6edf3">Recycle VQA</text>
  <text x="220" y="329" text-anchor="middle" font-family="-apple-system, 'Segoe UI', 'Noto Sans KR', sans-serif" font-size="26" fill="#8b949e">Computer Vision</text>
  <g>
    <rect x="157" y="361" width="126" height="46" rx="23" fill="#16A34A" fill-opacity="0.14" stroke="#22C55E" stroke-opacity="0.28"/>
    <circle cx="185" cy="384" r="6" fill="#22C55E"/>
    <text x="203" y="392" font-family="-apple-system, 'Segoe UI', 'Noto Sans KR', sans-serif" font-size="21" font-weight="600" fill="#86EFAC">Python</text>
  </g>
  <text x="220" y="461" text-anchor="middle" font-family="-apple-system, 'Segoe UI', 'Noto Sans KR', sans-serif" font-size="22" font-weight="700" fill="#86EFAC">저장소 보기 →</text>
</svg>
